<svg xmlns="http://www.w3.org/2000/svg" width="500" height="700" viewBox="0 0 500 700">
  <defs>
    <linearGradient id="gold" x1="0" y1="0" x2="1" y2="1">
      <stop offset="0%" stop-color="#fff2c7"/>
      <stop offset="26%" stop-color="#efcf8a"/>
      <stop offset="62%" stop-color="#d3aa60"/>
      <stop offset="100%" stop-color="#a47632"/>
    </linearGradient>
    <linearGradient id="goldStroke" x1="0" y1="0" x2="0" y2="1">
      <stop offset="0%" stop-color="#fff3d1"/>
      <stop offset="100%" stop-color="#a87937"/>
    </linearGradient>
    <linearGradient id="navy" x1="0" y1="0" x2="1" y2="1">
      <stop offset="0%" stop-color="#1a3858"/>
      <stop offset="55%" stop-color="#0f2944"/>
      <stop offset="100%" stop-color="#09192b"/>
    </linearGradient>
    <radialGradient id="faceGlow" cx="32%" cy="20%" r="90%">
      <stop offset="0%" stop-color="#ffffff" stop-opacity="0.11"/>
      <stop offset="55%" stop-color="#ffffff" stop-opacity="0.02"/>
      <stop offset="100%" stop-color="#000000" stop-opacity="0.12"/>
    </radialGradient>
    <filter id="drop" x="-20%" y="-20%" width="140%" height="140%">
      <feGaussianBlur stdDeviation="7"/>
    </filter>
    <filter id="numShadow" x="-20%" y="-20%" width="140%" height="140%">
      <feOffset dx="0" dy="2"/>
      <feGaussianBlur stdDeviation="2"/>
      <feColorMatrix type="matrix" values="0 0 0 0 0  0 0 0 0 0  0 0 0 0 0  0 0 0 .28 0"/>
    </filter>
    <style>
      .num {
        font-family: "Avenir Next Rounded", "Arial Rounded MT Bold", "Nunito Sans", "Trebuchet MS", "DejaVu Sans", sans-serif;
        font-weight: 700;
        fill: url(#gold);
        letter-spacing: -0.02em;
      }
      .small { font-size: 66px; }
      .big { font-size: 305px; }
    </style>
  </defs>

  <rect x="32" y="32" width="440" height="636" rx="32" fill="#000" opacity="0.22" filter="url(#drop)"/>
  <rect x="24" y="20" width="452" height="660" rx="28" fill="url(#goldStroke)"/>
  <rect x="30" y="26" width="440" height="648" rx="24" fill="#3f2d18" opacity="0.45"/>
  <rect x="36" y="32" width="428" height="636" rx="22" fill="url(#navy)"/>
  <rect x="36" y="32" width="428" height="636" rx="22" fill="url(#faceGlow)"/>
  <rect x="47" y="43" width="406" height="614" rx="18" fill="none" stroke="#f3dca7" stroke-opacity="0.88" stroke-width="2.2"/>
  <rect x="53" y="49" width="394" height="602" rx="14" fill="none" stroke="#8a6430" stroke-opacity="0.7" stroke-width="1.1"/>

  <!-- clipped-corner interior accents -->
  <path d="M61 66 h48 l12 -12" fill="none" stroke="#bc914c" stroke-width="1.6" stroke-opacity="0.85" stroke-linecap="round"/>
  <path d="M439 66 h-48 l-12 -12" fill="none" stroke="#bc914c" stroke-width="1.6" stroke-opacity="0.85" stroke-linecap="round"/>
  <path d="M61 634 h48 l12 12" fill="none" stroke="#bc914c" stroke-width="1.6" stroke-opacity="0.85" stroke-linecap="round"/>
  <path d="M439 634 h-48 l-12 12" fill="none" stroke="#bc914c" stroke-width="1.6" stroke-opacity="0.85" stroke-linecap="round"/>

  <!-- corner numerals -->
  <text x="72" y="130" class="num small" text-anchor="middle" dominant-baseline="middle">1</text>
  <g transform="translate(428 570) rotate(180)">
    <text x="0" y="0" class="num small" text-anchor="middle" dominant-baseline="middle">1</text>
  </g>

  <!-- main numeral -->
  <text x="250" y="350" class="num big" text-anchor="middle" dominant-baseline="central" filter="url(#numShadow)">1</text>
  <text x="250" y="350" class="num big" text-anchor="middle" dominant-baseline="central">1</text>
</svg>
